<mxfile host="app.diagrams.net" modified="2023-10-19T01:40:23.564Z" agent="Mozilla/5.0 (Windows NT 10.0; Win64; x64) AppleWebKit/537.36 (KHTML, like Gecko) Chrome/118.0.0.0 Safari/537.36 Edg/118.0.2088.46" version="22.0.4" etag="EQqi8tQh0jt_KEbr-X9V" type="github">
  <diagram name="PÃ¡gina-1" id="6-wEJZ5l1GYz3TeEzO7J">
    <mxGraphModel>
      <root>
        <mxCell id="0" />
        <mxCell id="1" parent="0" />
      </root>
    </mxGraphModel>
  </diagram>
</mxfile>
